<svg width="25" height="21" viewBox="0 0 25 21" fill="none" xmlns="http://www.w3.org/2000/svg">
<path d="M5.3241 20.8102C5.21887 20.7769 5.11043 20.7518 5.00899 20.7086C4.50762 20.4989 4.20243 20.1246 4.12897 19.5856C4.05376 19.0308 4.26277 18.5884 4.70147 18.2497C4.7382 18.2205 4.77638 18.1951 4.8408 18.1478C4.76181 18.1434 4.71546 18.1384 4.66911 18.1384C4.2857 18.1384 3.90238 18.1384 3.51916 18.1384C3.06967 18.1384 2.79625 17.8663 2.79479 17.4172C2.79334 16.9681 3.06268 16.6915 3.51333 16.6915C7.41937 16.6915 11.3254 16.6929 15.2315 16.6956C15.3871 16.6956 15.4466 16.6533 15.4821 16.5012C15.6381 15.8348 15.8083 15.1717 15.9727 14.5074C15.9879 14.4469 15.9995 14.3856 16.0173 14.303H15.8456H3.22533C2.82598 14.303 2.51204 14.0627 2.41585 13.6606C2.18848 12.7119 1.96811 11.7626 1.74541 10.8112C1.28543 8.85055 0.825352 6.88957 0.365178 4.9283C0.204272 4.24385 0.528707 3.83359 1.23966 3.83359C6.95065 3.83359 12.6615 3.83359 18.3723 3.83359C18.6682 3.83359 18.6038 3.88411 18.6787 3.58948C18.8591 2.87904 19.0308 2.16656 19.2072 1.45525C19.3162 1.01724 19.58 0.809632 20.0312 0.809632C21.2057 0.809632 22.3798 0.807296 23.5539 0.809632C24.1323 0.809632 24.4993 1.38867 24.2425 1.89354C24.0967 2.18028 23.8486 2.31052 23.5295 2.31022C22.5736 2.31022 21.6178 2.31402 20.662 2.30614C20.5192 2.30614 20.4734 2.35402 20.4414 2.48367C19.6693 5.61256 18.8945 8.74095 18.117 11.8689C17.6488 13.7571 17.1804 15.6462 16.7117 17.536C16.6061 17.9606 16.3805 18.1358 15.9459 18.1358H15.3416C15.4655 18.2421 15.5748 18.3206 15.6646 18.4161C16.0497 18.8217 16.1602 19.3023 15.9917 19.8306C15.8311 20.3383 15.4684 20.6455 14.9534 20.774C14.9166 20.7831 14.8808 20.7965 14.8446 20.8079H14.4657C14.4401 20.7963 14.4137 20.7866 14.3867 20.7787C13.8017 20.6446 13.4186 20.2878 13.2857 19.7047C13.1508 19.1134 13.3545 18.6261 13.8302 18.2526C13.8693 18.2234 13.9092 18.1924 13.9687 18.1475H6.19888C6.25718 18.1895 6.29274 18.2135 6.32685 18.2389C6.82239 18.6115 7.02148 19.1079 6.88798 19.7108C6.76059 20.2855 6.37932 20.6315 5.81236 20.7752C5.77534 20.7845 5.73919 20.7971 5.70246 20.8082L5.3241 20.8102ZM14.8441 8.3012C14.9059 8.30383 14.9577 8.30821 15.0096 8.30821C15.7859 8.30821 16.5618 8.3047 17.3381 8.312C17.4704 8.312 17.5217 8.27375 17.5515 8.14732C17.6864 7.57587 17.8307 7.00647 17.9715 6.43648C18.0645 6.06068 18.1566 5.68487 18.2511 5.30235C18.2187 5.29633 18.186 5.29223 18.1531 5.29009C17.2122 5.29009 16.2709 5.29009 15.33 5.28717C15.2207 5.28717 15.2055 5.33827 15.195 5.42616C15.1323 5.95176 15.0641 6.47736 14.9997 7.00296C14.9472 7.42958 14.8971 7.85794 14.8441 8.3012ZM5.32323 8.3085C5.31885 8.24484 5.3174 8.20192 5.31273 8.15958C5.211 7.25263 5.10635 6.34742 5.01016 5.43843C4.99733 5.31958 4.96031 5.28629 4.84313 5.28688C3.97477 5.29155 3.1064 5.28951 2.23804 5.28951H2.09724C2.09547 5.31088 2.09547 5.33237 2.09724 5.35375C2.31936 6.30362 2.54323 7.25175 2.76244 8.20367C2.78459 8.29945 2.83648 8.30967 2.91722 8.30938C3.63527 8.30762 4.35322 8.30762 5.07108 8.30938L5.32323 8.3085ZM9.35723 5.29885H6.49358C6.60726 6.30567 6.71949 7.30139 6.83172 8.29594H9.35723V5.29885ZM13.335 8.30208C13.4586 7.29438 13.5807 6.29983 13.7037 5.29885H10.873V8.30208H13.335ZM14.2873 12.7837C14.3062 12.7903 14.3258 12.7952 14.3456 12.7983C14.9956 12.7983 15.646 12.7983 16.2957 12.8018C16.3896 12.8018 16.4041 12.7507 16.4219 12.6789C16.5924 11.986 16.7665 11.2942 16.9384 10.6019C17.0023 10.3443 17.0638 10.0862 17.1273 9.82369C17.1036 9.81648 17.0793 9.81131 17.0548 9.80822C16.2884 9.80822 15.5218 9.80822 14.7554 9.8053C14.6619 9.8053 14.6455 9.84968 14.6362 9.92823C14.5735 10.4588 14.5062 10.9885 14.4412 11.5185C14.3911 11.9375 14.3418 12.3565 14.2882 12.7837H14.2873ZM9.3654 12.791V9.8161H7.00224C7.11359 10.8124 7.22349 11.7979 7.33425 12.791H9.3654ZM5.49608 9.81668H3.14838C3.17753 9.93699 3.20026 10.0453 3.22562 10.1537C3.42112 10.9907 3.61681 11.8272 3.8127 12.6631C3.82873 12.732 3.83106 12.803 3.9395 12.8021C4.5461 12.7974 5.15241 12.7995 5.75901 12.7986C5.78377 12.7957 5.80824 12.7907 5.83218 12.7837C5.72024 11.7973 5.60889 10.815 5.49608 9.81668ZM13.1478 9.8199H10.8818V12.7919H12.78C12.9027 11.8011 13.0245 10.815 13.1467 9.8199H13.1478Z" fill="#32140B"/>
</svg>
